<svg xmlns="http://www.w3.org/2000/svg" width="276.08685302734375" height="409.0882568359375" viewBox="-39.2618293762207 -100.89185333251953 276.08685302734375 409.0882568359375"><title>Neo4j Graph Visualization</title><desc>Created using Neo4j (http://www.neo4j.com/)</desc><g class="layer relationships"><g class="relationship" transform="translate(72.76779714242805 -28.6901243024107) rotate(201.2021492104755)"><path class="outline" fill="#A5ABB6" stroke="none" d="M 24.018736134675446,-6.953439040707552 L 24.277555179777966,-5.987513214418485 A 68.4157049833766 68.4157049833766 0 0 1 31.13176684099344,-7.452402000929197 L 30.973132565789598,-8.439739413737271 A 69.4157049833766 69.4157049833766 0 0 0 24.018736134675446,-6.953439040707552 Z M 50.38202507960492,-8.808948558278615 L 50.261055589083654,-7.8162923326078015 A 68.4157049833766 68.4157049833766 0 0 1 57.16602054264183,-6.613139955009549 L 56.500332250776424,-3.687929005680712 L 64.10246080638669,-5.547402432211737 L 58.053604931795704,-10.513421220781332 L 57.387916639930296,-7.588210271452494 A 69.4157049833766 69.4157049833766 0 0 0 50.38202507960492,-8.808948558278615"/><text text-anchor="middle" pointer-events="none" font-size="8px" fill="#000000" x="40.67411836465241" y="-5.806256214440367" transform="rotate(180 40.67411836465241 -8.806256214440367)" font-family="sans-serif">trek</text></g><g class="relationship" transform="translate(-9.722284117518525 -60.6894780236907) rotate(355.8658581206107)"><path class="outline" fill="#A5ABB6" stroke="none" d="M 21.40063509461097,-12.933012701892217 L 21.90063509461097,-12.06698729810778 A 85.8252741535402 85.8252741535402 0 0 1 39.91332994200248,-19.873977171530314 L 39.62320628699575,-20.830966338034074 A 86.8252741535402 86.8252741535402 0 0 0 21.40063509461097,-12.933012701892217 Z M 85.78037218998992,-21.995736313069614 L 85.53888605334345,-21.025332043804696 A 85.8252741535402 85.8252741535402 0 0 1 103.92242054794522,-14.136796202658719 L 102.55537050019595,-11.466370362657038 L 110.38125584924069,-11.392083731244005 L 105.74515394494426,-17.697363989327627 L 104.37810389719499,-15.026938149325947 A 86.8252741535402 86.8252741535402 0 0 0 85.78037218998992,-21.995736313069614"/><text text-anchor="middle" pointer-events="none" font-size="8px" fill="#000000" x="62.63555857090398" y="-21.03792096357958" font-family="sans-serif">twowheeler</text></g><g class="relationship" transform="translate(122.567404817763 -70.25135913480685) rotate(439.29520178275504)"><path class="outline" fill="#A5ABB6" stroke="none" d="M 21.40063509461097,12.933012701892217 L 21.90063509461097,12.06698729810778 A 76.1887937033824 76.1887937033824 0 0 0 35.30597603612878,18.163172994478415 L 34.98192502140485,19.10921260245283 A 77.1887937033824 77.1887937033824 0 0 1 21.40063509461097,12.933012701892217 Z M 81.02076848757146,20.355525339506272 L 80.74837484683047,19.39333944037665 A 76.1887937033824 76.1887937033824 0 0 0 94.46389912867824,14.03133986213971 L 93.10665751188994,11.355915560527365 L 100.93276276857175,11.310346806569092 L 96.27355461772929,17.598572264289505 L 94.91631300094099,14.92314796267716 A 77.1887937033824 77.1887937033824 0 0 1 81.02076848757146,20.355525339506272"/><text text-anchor="middle" pointer-events="none" font-size="8px" fill="#000000" x="57.91975787403555" y="25.746265550916547" font-family="sans-serif">twowheeler</text></g><g class="relationship" transform="translate(145.45686422942313 50.832099997255156) rotate(419.6628671667869)"><path class="outline" fill="#A5ABB6" stroke="none" d="M 25 0.5 L 48.572035602006544 0.5 L 48.572035602006544 -0.5 L 25 -0.5 Z M 67.90797310200654 0.5 L 91.48000870401309 0.5 L 91.48000870401309 3.5 L 98.48000870401309 0 L 91.48000870401309 -3.5 L 91.48000870401309 -0.5 L 67.90797310200654 -0.5 Z"/><text text-anchor="middle" pointer-events="none" font-size="8px" fill="#000000" x="58.240004352006544" y="3" font-family="sans-serif">trek</text></g><g class="relationship" transform="translate(72.76779714242805 -28.6901243024107) rotate(201.2021492104755)"><path class="outline" fill="#A5ABB6" stroke="none" d="M 24.018736134675446,6.953439040707552 L 24.277555179777966,5.987513214418485 A 68.4157049833766 68.4157049833766 0 0 0 29.82252864600705,7.228991086913041 L 29.644757855359792,8.213063008061411 A 69.4157049833766 69.4157049833766 0 0 1 24.018736134675446,6.953439040707552 Z M 51.71805962596031,8.632956356335939 L 51.57784327269126,7.642835467617843 A 68.4157049833766 68.4157049833766 0 0 0 57.16602054264183,6.613139955009549 L 56.500332250776424,3.687929005680712 L 64.10246080638669,5.547402432211737 L 58.053604931795704,10.513421220781332 L 57.387916639930296,7.588210271452494 A 69.4157049833766 69.4157049833766 0 0 1 51.71805962596031,8.632956356335939"/><text text-anchor="middle" pointer-events="none" font-size="8px" fill="#000000" x="40.67411836465242" y="11.806256214440367" transform="rotate(180 40.67411836465242 8.806256214440367)" font-family="sans-serif">road</text></g><g class="relationship" transform="translate(-9.722284117518525 -60.6894780236907) rotate(355.8658581206107)"><path class="outline" fill="#A5ABB6" stroke="none" d="M 25 0.5 L 51.811542882960666 0.5 L 51.811542882960666 -0.5 L 25 -0.5 Z M 73.82326163296067 0.5 L 100.63480451592133 0.5 L 100.63480451592133 3.5 L 107.63480451592133 0 L 100.63480451592133 -3.5 L 100.63480451592133 -0.5 L 73.82326163296067 -0.5 Z"/><text text-anchor="middle" pointer-events="none" font-size="8px" fill="#000000" x="62.817402257960666" y="3" font-family="sans-serif">road</text></g><g class="relationship" transform="translate(-9.722284117518525 -60.6894780236907) rotate(355.8658581206107)"><path class="outline" fill="#A5ABB6" stroke="none" d="M 21.40063509461097,12.933012701892217 L 21.90063509461097,12.06698729810778 A 85.8252741535402 85.8252741535402 0 0 0 53.07289809133336,22.75859582155391 L 52.9361041900515,23.749195351420596 A 86.8252741535402 86.8252741535402 0 0 1 21.40063509461097,12.933012701892217 Z M 72.33723024810455,24.23878020075456 L 72.25057393575686,23.242541934309074 A 85.8252741535402 85.8252741535402 0 0 0 103.92242054794522,14.136796202658719 L 102.55537050019595,11.466370362657038 L 110.38125584924069,11.392083731244005 L 105.74515394494426,17.697363989327627 L 104.37810389719499,15.026938149325947 A 86.8252741535402 86.8252741535402 0 0 1 72.33723024810455,24.23878020075456"/><text text-anchor="middle" pointer-events="none" font-size="8px" fill="#000000" x="62.63555857090397" y="27.03792096357958" font-family="sans-serif">trek</text></g><g class="relationship" transform="translate(122.567404817763 -70.25135913480685) rotate(439.29520178275504)"><path class="outline" fill="#A5ABB6" stroke="none" d="M 25 0.5 L 47.10812326600399 0.5 L 47.10812326600399 -0.5 L 25 -0.5 Z M 69.11984201600399 0.5 L 91.22796528200799 0.5 L 91.22796528200799 3.5 L 98.22796528200799 0 L 91.22796528200799 -3.5 L 91.22796528200799 -0.5 L 69.11984201600399 -0.5 Z"/><text text-anchor="middle" pointer-events="none" font-size="8px" fill="#000000" x="58.11398264100399" y="3" font-family="sans-serif">road</text></g><g class="relationship" transform="translate(122.567404817763 -70.25135913480685) rotate(439.29520178275504)"><path class="outline" fill="#A5ABB6" stroke="none" d="M 21.40063509461097,-12.933012701892217 L 21.90063509461097,-12.06698729810778 A 76.1887937033824 76.1887937033824 0 0 1 48.373645253577266,-21.382805137571623 L 48.22111118487986,-22.371103350605836 A 77.1887937033824 77.1887937033824 0 0 0 21.40063509461097,-12.933012701892217 Z M 67.62449706760167,-22.896370389196207 L 67.52565545141296,-21.901267211174343 A 76.1887937033824 76.1887937033824 0 0 1 94.46389912867824,-14.03133986213971 L 93.10665751188994,-11.355915560527365 L 100.93276276857175,-11.310346806569092 L 96.27355461772929,-17.598572264289505 L 94.91631300094099,-14.92314796267716 A 77.1887937033824 77.1887937033824 0 0 0 67.62449706760167,-22.896370389196207"/><text text-anchor="middle" pointer-events="none" font-size="8px" fill="#000000" x="57.91975787403557" y="-19.746265550916547" font-family="sans-serif">trek</text></g><g class="relationship" transform="translate(72.76779714242805 -28.6901243024107) rotate(484.41124389972833)"><path class="outline" fill="#A5ABB6" stroke="none" d="M 21.40063509461097,12.933012701892217 L 21.90063509461097,12.06698729810778 A 55.059403128146215 55.059403128146215 0 0 0 38.15911903967076,18.277535847856406 L 37.95440890881844,19.256358488750266 A 56.059403128146215 56.059403128146215 0 0 1 21.40063509461097,12.933012701892217 Z M 57.356011529297525,19.88045487110316 L 57.21463159250983,18.89049946126194 A 55.059403128146215 55.059403128146215 0 0 0 73.83864359919967,13.737690685265788 L 72.50871779794966,11.048583516860345 L 80.33488129235403,11.082715010416685 L 75.61187800086634,17.323166909806375 L 74.28195219961633,14.634059741400934 A 56.059403128146215 56.059403128146215 0 0 1 57.356011529297525,19.88045487110316"/><text text-anchor="middle" pointer-events="none" font-size="8px" fill="#000000" x="47.64406684847459" y="22.91482632603458" transform="rotate(180 47.64406684847459 19.91482632603458)" font-family="sans-serif">trek</text></g><g class="relationship" transform="translate(14.704131001537306 56.07403286600275) rotate(462.0518249471542)"><path class="outline" fill="#A5ABB6" stroke="none" d="M 24.018736134675446,-6.953439040707552 L 24.277555179777966,-5.987513214418485 A 130.74543705232847 130.74543705232847 0 0 1 33.250562387431266,-8.056112984894952 L 33.060372943559585,-9.037860394079104 A 131.74543705232847 131.74543705232847 0 0 0 24.018736134675446,-6.953439040707552 Z M 79.4542605988918,-9.703195572795039 L 79.29230207700962,-8.716398006325733 A 130.74543705232847 130.74543705232847 0 0 1 88.32093860218119,-6.905959977739511 L 87.62789779860226,-3.987108415125427 L 95.2470990488772,-5.775340029824366 L 89.2449930069531,-10.797762061224956 L 88.55195220337417,-7.878910498610872 A 131.74543705232847 131.74543705232847 0 0 0 79.4542605988918,-9.703195572795039"/><text text-anchor="middle" pointer-events="none" font-size="8px" fill="#000000" x="56.2349658236517" y="-7.92906176296691" transform="rotate(180 56.2349658236517 -10.92906176296691)" font-family="sans-serif">twowheeler</text></g><g class="relationship" transform="translate(-10.261829254411989 173.0094504469027) rotate(371.2743311172926)"><path class="outline" fill="#A5ABB6" stroke="none" d="M 24.018736134675446,-6.953439040707552 L 24.277555179777966,-5.987513214418485 A 116.30504584438808 116.30504584438808 0 0 1 43.001679503339396,-9.392640718924142 L 42.90385196284119,-10.38784410131393 A 117.30504584438808 117.30504584438808 0 0 0 24.018736134675446,-6.953439040707552 Z M 62.29814978855863,-10.682934154099897 L 62.23064515867907,-9.685215193197166 A 116.30504584438808 116.30504584438808 0 0 1 81.04969810670839,-6.851318380433099 L 80.36176109175125,-3.9312597057740017 L 87.97782451673915,-5.732808457976261 L 81.9669474599846,-10.74472994664523 L 81.27901044502745,-7.824671271986132 A 117.30504584438808 117.30504584438808 0 0 0 62.29814978855863,-10.682934154099897"/><text text-anchor="middle" pointer-events="none" font-size="8px" fill="#000000" x="52.60249799616595" y="-7.436993400960986" font-family="sans-serif">trek</text></g><g class="relationship" transform="translate(99.88246617052255 194.9671414348619) rotate(340.81241581409677)"><path class="outline" fill="#A5ABB6" stroke="none" d="M 24.018736134675446,6.953439040707552 L 24.277555179777966,5.987513214418485 A 120.24918170309029 120.24918170309029 0 0 0 43.990025231623456,9.542325024252207 L 43.89513636694011,10.537812896282347 A 121.24918170309029 121.24918170309029 0 0 1 24.018736134675446,6.953439040707552 Z M 63.28823033893275,10.82805809728842 L 63.223175081110746,9.830176434249296 A 120.24918170309029 120.24918170309029 0 0 0 83.03319795909503,6.866874876531422 L 82.34380787746954,3.9471589116888812 L 89.96076689066521,5.744917346879047 L 83.95238473459568,10.759829496321476 L 83.26299465297019,7.840113531478935 A 121.24918170309029 121.24918170309029 0 0 1 63.28823033893275,10.82805809728842"/><text text-anchor="middle" pointer-events="none" font-size="8px" fill="#000000" x="53.59335288762061" y="13.571383461100865" font-family="sans-serif">trek</text></g><g class="relationship" transform="translate(14.704131001537306 56.07403286600275) rotate(357.704217183623)"><path class="outline" fill="#A5ABB6" stroke="none" d="M 25 0.5 L 52.26091460200885 0.5 L 52.26091460200885 -0.5 L 25 -0.5 Z M 71.59685210200885 0.5 L 98.8577667040177 0.5 L 98.8577667040177 3.5 L 105.8577667040177 0 L 98.8577667040177 -3.5 L 98.8577667040177 -0.5 L 71.59685210200885 -0.5 Z"/><text text-anchor="middle" pointer-events="none" font-size="8px" fill="#000000" x="61.92888335200885" y="3" font-family="sans-serif">trek</text></g><g class="relationship" transform="translate(72.76779714242805 -28.6901243024107) rotate(484.41124389972833)"><path class="outline" fill="#A5ABB6" stroke="none" d="M 25 0.5 L 36.86619447286635 0.5 L 36.86619447286635 -0.5 L 25 -0.5 Z M 58.87791322286635 0.5 L 70.7441076957327 0.5 L 70.7441076957327 3.5 L 77.7441076957327 0 L 70.7441076957327 -3.5 L 70.7441076957327 -0.5 L 58.87791322286635 -0.5 Z"/><text text-anchor="middle" pointer-events="none" font-size="8px" fill="#000000" x="47.87205384786635" y="3" transform="rotate(180 47.87205384786635 0)" font-family="sans-serif">road</text></g><g class="relationship" transform="translate(72.76779714242805 -28.6901243024107) rotate(484.41124389972833)"><path class="outline" fill="#A5ABB6" stroke="none" d="M 21.40063509461097,-12.933012701892217 L 21.90063509461097,-12.06698729810778 A 55.059403128146215 55.059403128146215 0 0 1 23.0512548350914,-12.713038641248644 L 22.57215262320949,-13.590797760010652 A 56.059403128146215 56.059403128146215 0 0 0 21.40063509461097,-12.933012701892217 Z M 73.07058203746638,-15.215193833285277 L 72.64888212523678,-14.30845837901785 A 55.059403128146215 55.059403128146215 0 0 1 73.83864359919967,-13.737690685265788 L 72.50871779794966,-11.048583516860345 L 80.33488129235403,-11.082715010416685 L 75.61187800086634,-17.323166909806375 L 74.28195219961633,-14.634059741400934 A 56.059403128146215 56.059403128146215 0 0 0 73.07058203746638,-15.215193833285277"/><text text-anchor="middle" pointer-events="none" font-size="8px" fill="#000000" x="47.644066848474566" y="-16.91482632603458" transform="rotate(180 47.644066848474566 -19.91482632603458)" font-family="sans-serif">PublicTran…</text></g><g class="relationship" transform="translate(14.704131001537306 56.07403286600275) rotate(462.0518249471542)"><path class="outline" fill="#A5ABB6" stroke="none" d="M 24.018736134675446,6.953439040707552 L 24.277555179777966,5.987513214418485 A 130.74543705232847 130.74543705232847 0 0 0 46.62578003566915,9.936598291110585 L 46.53789028155938,10.932728499026467 A 131.74543705232847 131.74543705232847 0 0 1 24.018736134675446,6.953439040707552 Z M 65.92794834877579,11.210801503929758 L 65.86865988934701,10.212560611870856 A 130.74543705232847 130.74543705232847 0 0 0 88.32093860218119,6.905959977739511 L 87.62789779860226,3.987108415125427 L 95.2470990488772,5.775340029824366 L 89.2449930069531,10.797762061224956 L 88.55195220337417,7.878910498610872 A 131.74543705232847 131.74543705232847 0 0 1 65.92794834877579,11.210801503929758"/><text text-anchor="middle" pointer-events="none" font-size="8px" fill="#000000" x="56.234965823651706" y="13.92906176296691" transform="rotate(180 56.234965823651706 10.92906176296691)" font-family="sans-serif">trek</text></g><g class="relationship" transform="translate(-10.261829254411989 173.0094504469027) rotate(371.2743311172926)"><path class="outline" fill="#A5ABB6" stroke="none" d="M 24.018736134675446,6.953439040707552 L 24.277555179777966,5.987513214418485 A 116.30504584438808 116.30504584438808 0 0 0 29.666901869281553,7.294708498709312 L 29.45442085405879,8.271873693632813 A 117.30504584438808 117.30504584438808 0 0 1 24.018736134675446,6.953439040707552 Z M 75.80573045265578,8.977122758025942 L 75.6230766357411,7.9939454682320275 A 116.30504584438808 116.30504584438808 0 0 0 81.04969810670839,6.851318380433099 L 80.36176109175125,3.9312597057740017 L 87.97782451673915,5.732808457976261 L 81.9669474599846,10.74472994664523 L 81.27901044502745,7.824671271986132 A 117.30504584438808 117.30504584438808 0 0 1 75.80573045265578,8.977122758025942"/><text text-anchor="middle" pointer-events="none" font-size="8px" fill="#000000" x="52.602497996165965" y="13.436993400960986" font-family="sans-serif">twowheeler</text></g><g class="relationship" transform="translate(99.88246617052255 194.9671414348619) rotate(340.81241581409677)"><path class="outline" fill="#A5ABB6" stroke="none" d="M 24.018736134675446,-6.953439040707552 L 24.277555179777966,-5.987513214418485 A 120.24918170309029 120.24918170309029 0 0 1 30.642875509286828,-7.508718946693989 L 30.436990881195356,-8.48729521858884 A 121.24918170309029 121.24918170309029 0 0 0 24.018736134675446,-6.953439040707552 Z M 76.80171216885549,-9.181209138108983 L 76.62520476232527,-8.19690982619214 A 120.24918170309029 120.24918170309029 0 0 1 83.03319795909503,-6.866874876531422 L 82.34380787746954,-3.9471589116888812 L 89.96076689066521,-5.744917346879047 L 83.95238473459568,-10.759829496321476 L 83.26299465297019,-7.840113531478935 A 121.24918170309029 121.24918170309029 0 0 0 76.80171216885549,-9.181209138108983"/><text text-anchor="middle" pointer-events="none" font-size="8px" fill="#000000" x="53.593352887620554" y="-7.571383461100865" font-family="sans-serif">twowheeler</text></g><g class="relationship" transform="translate(14.704131001537306 56.07403286600275) rotate(258.18436894488076)"><path class="outline" fill="#A5ABB6" stroke="none" d="M 25 0.5 L 46.477582699492025 0.5 L 46.477582699492025 -0.5 L 25 -0.5 Z M 65.81352019949202 0.5 L 87.29110289898405 0.5 L 87.29110289898405 3.5 L 94.29110289898405 0 L 87.29110289898405 -3.5 L 87.29110289898405 -0.5 L 65.81352019949202 -0.5 Z"/><text text-anchor="middle" pointer-events="none" font-size="8px" fill="#000000" x="56.145551449492025" y="3" transform="rotate(180 56.145551449492025 0)" font-family="sans-serif">trek</text></g><g class="relationship" transform="translate(-10.261829254411989 173.0094504469027) rotate(424.77189945968183)"><path class="outline" fill="#A5ABB6" stroke="none" d="M 24.018736134675446,-6.953439040707552 L 24.277555179777966,-5.987513214418485 A 126.39903239494018 126.39903239494018 0 0 1 45.53340774014159,-9.773997116704408 L 45.442753372866264,-10.769879532300706 A 127.39903239494018 127.39903239494018 0 0 0 24.018736134675446,-6.953439040707552 Z M 64.83403865440626,-11.0528706419867 L 64.77248397490149,-10.054766929223817 A 126.39903239494018 126.39903239494018 0 0 1 86.12977874080805,-6.890167635100202 L 85.43821300309781,-3.970966232246111 L 93.05650963708597,-5.763047814251991 L 87.05186639108837,-10.78243617223899 L 86.36030065337813,-7.863234769384899 A 127.39903239494018 127.39903239494018 0 0 0 64.83403865440626,-11.0528706419867"/><text text-anchor="middle" pointer-events="none" font-size="8px" fill="#000000" x="55.14029947927715" y="-7.780944681372532" font-family="sans-serif">trek</text></g><g class="relationship" transform="translate(39.7695864567507 279.19640946550965) rotate(305.5147521150121)"><path class="outline" fill="#A5ABB6" stroke="none" d="M 21.40063509461097,12.933012701892217 L 21.90063509461097,12.06698729810778 A 55.8229999719018 55.8229999719018 0 0 0 37.23002143613557,18.109409675980373 L 37.00462843234216,19.083677603113863 A 56.8229999719018 56.8229999719018 0 0 1 21.40063509461097,12.933012701892217 Z M 59.05944364747143,19.78835405922799 L 58.896704816866176,18.8016848780871 A 55.8229999719018 55.8229999719018 0 0 0 74.58055506150191,13.750170718532889 L 73.24946823384626,11.061638059768702 L 81.07564573656094,11.092390230463739 L 76.3553374983761,17.334880930218468 L 75.02425067072045,14.646348271454283 A 56.8229999719018 56.8229999719018 0 0 1 59.05944364747143,19.78835405922799"/><text text-anchor="middle" pointer-events="none" font-size="8px" fill="#000000" x="48.01346897889098" y="23.017123793894797" font-family="sans-serif">road</text></g><g class="relationship" transform="translate(-10.261829254411989 173.0094504469027) rotate(424.77189945968183)"><path class="outline" fill="#A5ABB6" stroke="none" d="M 24.018736134675446,6.953439040707552 L 24.277555179777966,5.987513214418485 A 126.39903239494018 126.39903239494018 0 0 0 32.16904156214825,7.833046966639216 L 31.972655640407886,8.813573646409921 A 127.39903239494018 127.39903239494018 0 0 1 24.018736134675446,6.953439040707552 Z M 78.35548739765633,9.490471997333472 L 78.1877980914667,8.504632103339702 A 126.39903239494018 126.39903239494018 0 0 0 86.12977874080805,6.890167635100202 L 85.43821300309781,3.970966232246111 L 93.05650963708597,5.763047814251991 L 87.05186639108837,10.78243617223899 L 86.36030065337813,7.863234769384899 A 127.39903239494018 127.39903239494018 0 0 1 78.35548739765633,9.490471997333472"/><text text-anchor="middle" pointer-events="none" font-size="8px" fill="#000000" x="55.14029947927718" y="13.780944681372532" font-family="sans-serif">twowheeler</text></g><g class="relationship" transform="translate(39.7695864567507 279.19640946550965) rotate(305.5147521150121)"><path class="outline" fill="#A5ABB6" stroke="none" d="M 25 0.5 L 25.007620404797912 0.5 L 25.007620404797912 -0.5 L 25 -0.5 Z M 71.4724641547979 0.5 L 71.48008455959582 0.5 L 71.48008455959582 3.5 L 78.48008455959582 0 L 71.48008455959582 -3.5 L 71.48008455959582 -0.5 L 71.4724641547979 -0.5 Z"/><text text-anchor="middle" pointer-events="none" font-size="8px" fill="#000000" x="48.24004227979791" y="3" font-family="sans-serif">twowheeler</text></g><g class="relationship" transform="translate(39.7695864567507 279.19640946550965) rotate(305.5147521150121)"><path class="outline" fill="#A5ABB6" stroke="none" d="M 21.40063509461097,-12.933012701892217 L 21.90063509461097,-12.06698729810778 A 55.8229999719018 55.8229999719018 0 0 1 38.52534209165131,-18.392912757052677 L 38.32315315528832,-19.37225929123371 A 56.8229999719018 56.8229999719018 0 0 0 21.40063509461097,-12.933012701892217 Z M 57.72518605735402,-19.992176332182602 L 57.58592816916253,-19.001920183210814 A 55.8229999719018 55.8229999719018 0 0 1 74.58055506150191,-13.750170718532889 L 73.24946823384626,-11.061638059768702 L 81.07564573656094,-11.092390230463739 L 76.3553374983761,-17.334880930218468 L 75.02425067072045,-14.646348271454283 A 56.8229999719018 56.8229999719018 0 0 0 57.72518605735402,-19.992176332182602"/><text text-anchor="middle" pointer-events="none" font-size="8px" fill="#000000" x="48.013468978890984" y="-17.017123793894797" font-family="sans-serif">trek</text></g><g class="relationship" transform="translate(39.7695864567507 279.19640946550965) rotate(356.0802778230468)"><path class="outline" fill="#A5ABB6" stroke="none" d="M 25 0.5 L 49.05931737686724 0.5 L 49.05931737686724 -0.5 L 25 -0.5 Z M 68.39525487686724 0.5 L 92.45457225373448 0.5 L 92.45457225373448 3.5 L 99.45457225373448 0 L 92.45457225373448 -3.5 L 92.45457225373448 -0.5 L 68.39525487686724 -0.5 Z"/><text text-anchor="middle" pointer-events="none" font-size="8px" fill="#000000" x="58.72728612686724" y="3" font-family="sans-serif">trek</text></g><g class="relationship" transform="translate(163.93303553542407 270.68885589543436) rotate(291.17872118479676)"><path class="outline" fill="#A5ABB6" stroke="none" d="M 25 0.5 L 47.577426143694574 0.5 L 47.577426143694574 -0.5 L 25 -0.5 Z M 66.91336364369457 0.5 L 89.49078978738915 0.5 L 89.49078978738915 3.5 L 96.49078978738915 0 L 89.49078978738915 -3.5 L 89.49078978738915 -0.5 L 66.91336364369457 -0.5 Z"/><text text-anchor="middle" pointer-events="none" font-size="8px" fill="#000000" x="57.245394893694574" y="3" font-family="sans-serif">trek</text></g></g><g class="layer nodes"><g class="node" transform="translate(72.76779714242805,-28.6901243024107)"><circle class="outline" cx="0" cy="0" r="25" fill="#F16667" stroke="#eb2728" stroke-width="2px"/><text text-anchor="middle" pointer-events="none" font-family="sans-serif" dy="1.5625" font-size="25" fill="#FFFFFF"/><text text-anchor="middle" pointer-events="none" y="5" font-size="10px" fill="#FFFFFF" font-family="sans-serif"> Darjeeling</text></g><g class="node" transform="translate(207.82502077203839,157.4037922941263)"><circle class="outline" cx="0" cy="0" r="25" fill="#D9C8AE" stroke="#c0a378" stroke-width="2px"/><text text-anchor="middle" pointer-events="none" font-family="sans-serif" dy="1.5625" font-size="25" fill="#604A0E"/><text text-anchor="middle" pointer-events="none" y="5" font-size="10px" fill="#604A0E" font-family="sans-serif"> Sandak…</text></g><g class="node" transform="translate(99.88246617052255,194.9671414348619)"><circle class="outline" cx="0" cy="0" r="25" fill="#8DCC93" stroke="#5db665" stroke-width="2px"/><text text-anchor="middle" pointer-events="none" font-family="sans-serif" dy="1.5625" font-size="25" fill="#604A0E"/><text text-anchor="middle" pointer-events="none" y="5" font-size="10px" fill="#604A0E" font-family="sans-serif"> Gurdum</text></g><g class="node" transform="translate(-9.722284117518525,-60.6894780236907)"><circle class="outline" cx="0" cy="0" r="25" fill="#8DCC93" stroke="#5db665" stroke-width="2px"/><text text-anchor="middle" pointer-events="none" font-family="sans-serif" dy="1.5625" font-size="25" fill="#604A0E"/><text text-anchor="middle" pointer-events="none" y="5" font-size="10px" fill="#604A0E" font-family="sans-serif"> Tumbling</text></g><g class="node" transform="translate(122.567404817763,-70.25135913480685)"><circle class="outline" cx="0" cy="0" r="25" fill="#8DCC93" stroke="#5db665" stroke-width="2px"/><text text-anchor="middle" pointer-events="none" font-family="sans-serif" dy="1.5625" font-size="25" fill="#604A0E"/><text text-anchor="middle" pointer-events="none" y="5" font-size="10px" fill="#604A0E" font-family="sans-serif"> Gairibus</text></g><g class="node" transform="translate(145.45686422942313,50.832099997255156)"><circle class="outline" cx="0" cy="0" r="25" fill="#8DCC93" stroke="#5db665" stroke-width="2px"/><text text-anchor="middle" pointer-events="none" font-family="sans-serif" dy="1.5625" font-size="25" fill="#604A0E"/><text text-anchor="middle" pointer-events="none" y="5" font-size="10px" fill="#604A0E" font-family="sans-serif"> BhikeBh…</text></g><g class="node" transform="translate(14.704131001537306,56.07403286600275)"><circle class="outline" cx="0" cy="0" r="25" fill="#F16667" stroke="#eb2728" stroke-width="2px"/><text text-anchor="middle" pointer-events="none" font-family="sans-serif" dy="1.5625" font-size="25" fill="#FFFFFF"/><text text-anchor="middle" pointer-events="none" y="5" font-size="10px" fill="#FFFFFF" font-family="sans-serif"> Rimbik</text></g><g class="node" transform="translate(-10.261829254411989,173.0094504469027)"><circle class="outline" cx="0" cy="0" r="25" fill="#8DCC93" stroke="#5db665" stroke-width="2px"/><text text-anchor="middle" pointer-events="none" font-family="sans-serif" dy="1.5625" font-size="25" fill="#604A0E"/><text text-anchor="middle" pointer-events="none" y="5" font-size="10px" fill="#604A0E" font-family="sans-serif"> Sirikhola</text></g><g class="node" transform="translate(39.7695864567507,279.19640946550965)"><circle class="outline" cx="0" cy="0" r="25" fill="#8DCC93" stroke="#5db665" stroke-width="2px"/><text text-anchor="middle" pointer-events="none" font-family="sans-serif" dy="1.5625" font-size="25" fill="#604A0E"/><text text-anchor="middle" pointer-events="none" y="5" font-size="10px" fill="#604A0E" font-family="sans-serif"> Rammam</text></g><g class="node" transform="translate(163.93303553542407,270.68885589543436)"><circle class="outline" cx="0" cy="0" r="25" fill="#D9C8AE" stroke="#c0a378" stroke-width="2px"/><text text-anchor="middle" pointer-events="none" font-family="sans-serif" dy="1.5625" font-size="25" fill="#604A0E"/><text text-anchor="middle" pointer-events="none" y="5" font-size="10px" fill="#604A0E" font-family="sans-serif"> Sabargr…</text></g></g></svg>