<svg xmlns="http://www.w3.org/2000/svg" width="297.77154541015625" height="155.9033660888672" viewBox="39.666893005371094 4.2794342041015625 297.77154541015625 155.9033660888672"><title>Neo4j Graph Visualization</title><desc>Created using Neo4j (http://www.neo4j.com/)</desc><g class="layer relationships"><g class="relationship" transform="translate(68.66689282407431 73.08723875613197) rotate(339.9368259175386)"><path class="outline" fill="#A5ABB6" stroke="none" d="M 21.40063509461097,12.933012701892217 L 21.90063509461097,12.06698729810778 A 68.79900744614419 68.79900744614419 0 0 0 24.89389943498145,13.697647141461303 L 24.43740681178065,14.587374338394866 A 69.79900744614419 69.79900744614419 0 0 1 21.40063509461097,12.933012701892217 Z M 84.55318792146329,16.310581364287394 L 84.14841068841196,15.396166036548792 A 68.79900744614419 68.79900744614419 0 0 0 87.2301684462132,13.939645505182613 L 85.881455836395,11.259911507913966 L 93.70766654147641,11.239271748484935 L 89.0284519259708,17.512624168207473 L 87.6797393161526,14.832890170938827 A 69.79900744614419 69.79900744614419 0 0 1 84.55318792146329,16.310581364287394"/><text text-anchor="middle" pointer-events="none" font-size="8px" fill="#000000" x="54.314512015874286" y="24.75585358367276" font-family="sans-serif">PublicTransport</text></g><g class="relationship" transform="translate(177.66385545572572 33.27943373979844) rotate(362.98539426797447)"><path class="outline" fill="#A5ABB6" stroke="none" d="M 25 0.5 L 52.30818404284602 0.5 L 52.30818404284602 -0.5 L 25 -0.5 Z M 71.64412154284602 0.5 L 98.95230558569205 0.5 L 98.95230558569205 3.5 L 105.95230558569205 0 L 98.95230558569205 -3.5 L 98.95230558569205 -0.5 L 71.64412154284602 -0.5 Z"/><text text-anchor="middle" pointer-events="none" font-size="8px" fill="#000000" x="61.97615279284602" y="3" font-family="sans-serif">trek</text></g><g class="relationship" transform="translate(308.4384382936577 40.0996112868516) rotate(489.1452786641697)"><path class="outline" fill="#A5ABB6" stroke="none" d="M 25 0.5 L 45.55387143280948 0.5 L 45.55387143280948 -0.5 L 25 -0.5 Z M 64.88980893280947 0.5 L 85.44368036561896 0.5 L 85.44368036561896 3.5 L 92.44368036561896 0 L 85.44368036561896 -3.5 L 85.44368036561896 -0.5 L 64.88980893280947 -0.5 Z"/><text text-anchor="middle" pointer-events="none" font-size="8px" fill="#000000" x="55.22184018280948" y="3" transform="rotate(180 55.22184018280948 0)" font-family="sans-serif">trek</text></g><g class="relationship" transform="translate(68.66689282407431 73.08723875613197) rotate(339.9368259175386)"><path class="outline" fill="#A5ABB6" stroke="none" d="M 25 0.5 L 43.513532217690894 0.5 L 43.513532217690894 -0.5 L 25 -0.5 Z M 65.5252509676909 0.5 L 84.03878318538179 0.5 L 84.03878318538179 3.5 L 91.03878318538179 0 L 84.03878318538179 -3.5 L 84.03878318538179 -0.5 L 65.5252509676909 -0.5 Z"/><text text-anchor="middle" pointer-events="none" font-size="8px" fill="#000000" x="54.519391592690894" y="3" font-family="sans-serif">road</text></g><g class="relationship" transform="translate(68.66689282407431 73.08723875613197) rotate(339.9368259175386)"><path class="outline" fill="#A5ABB6" stroke="none" d="M 21.40063509461097,-12.933012701892217 L 21.90063509461097,-12.06698729810778 A 68.79900744614419 68.79900744614419 0 0 1 44.78481143695245,-20.31376406977199 L 44.61743507778412,-21.299657144294557 A 69.79900744614419 69.79900744614419 0 0 0 21.40063509461097,-12.933012701892217 Z M 64.02179851471077,-21.855879400584897 L 63.911171444505136,-20.86201741251125 A 68.79900744614419 68.79900744614419 0 0 1 87.2301684462132,-13.939645505182613 L 85.881455836395,-11.259911507913966 L 93.70766654147641,-11.239271748484935 L 89.0284519259708,-17.512624168207473 L 87.6797393161526,-14.832890170938827 A 69.79900744614419 69.79900744614419 0 0 0 64.02179851471077,-21.855879400584897"/><text text-anchor="middle" pointer-events="none" font-size="8px" fill="#000000" x="54.3145120158743" y="-18.75585358367276" font-family="sans-serif">trek</text></g></g><g class="layer nodes"><g class="node" transform="translate(68.66689282407431,73.08723875613197)"><circle class="outline" cx="0" cy="0" r="25" fill="#F16667" stroke="#eb2728" stroke-width="2px"/><text text-anchor="middle" pointer-events="none" font-family="sans-serif" dy="1.5625" font-size="25" fill="#FFFFFF"/><text text-anchor="middle" pointer-events="none" y="5" font-size="10px" fill="#FFFFFF" font-family="sans-serif"> Darjeeling</text></g><g class="node" transform="translate(234.29754764966296,131.18279520318646)"><circle class="outline" cx="0" cy="0" r="25" fill="#D9C8AE" stroke="#c0a378" stroke-width="2px"/><text text-anchor="middle" pointer-events="none" font-family="sans-serif" dy="1.5625" font-size="25" fill="#604A0E"/><text text-anchor="middle" pointer-events="none" y="5" font-size="10px" fill="#604A0E" font-family="sans-serif"> Sandak…</text></g><g class="node" transform="translate(177.66385545572572,33.27943373979844)"><circle class="outline" cx="0" cy="0" r="25" fill="#F16667" stroke="#eb2728" stroke-width="2px"/><text text-anchor="middle" pointer-events="none" font-family="sans-serif" dy="1.5625" font-size="25" fill="#FFFFFF"/><text text-anchor="middle" pointer-events="none" y="5" font-size="10px" fill="#FFFFFF" font-family="sans-serif"> Rimbik</text></g><g class="node" transform="translate(308.4384382936577,40.0996112868516)"><circle class="outline" cx="0" cy="0" r="25" fill="#8DCC93" stroke="#5db665" stroke-width="2px"/><text text-anchor="middle" pointer-events="none" font-family="sans-serif" dy="1.5625" font-size="25" fill="#604A0E"/><text text-anchor="middle" pointer-events="none" y="5" font-size="10px" fill="#604A0E" font-family="sans-serif"> BhikeBh…</text></g></g></svg>