<svg xmlns="http://www.w3.org/2000/svg" width="413.8983154296875" height="166.1463165283203" viewBox="-146.4523468017578 12.551279067993164 413.8983154296875 166.1463165283203"><title>Neo4j Graph Visualization</title><desc>Created using Neo4j (http://www.neo4j.com/)</desc><g class="layer relationships"><g class="relationship" transform="translate(238.44600208248386 50.615867442490085) rotate(181.5616608988122)"><path class="outline" fill="#A5ABB6" stroke="none" d="M 21.40063509461097,12.933012701892217 L 21.90063509461097,12.06698729810778 A 103.88188818564079 103.88188818564079 0 0 0 41.35416821954735,20.773879310692593 L 41.04143409875598,21.723720018228775 A 104.88188818564079 104.88188818564079 0 0 1 21.40063509461097,12.933012701892217 Z M 102.15235754468682,23.09129734264134 L 101.88242744667842,22.128417421680695 A 103.88188818564079 103.88188818564079 0 0 0 121.70598674845284,14.300492015109517 L 120.32371284882504,11.637914529587686 L 128.14904653127508,11.518949163564963 L 123.54901861462324,17.850595329138628 L 122.16674471499543,15.188017843616796 A 104.88188818564079 104.88188818564079 0 0 1 102.15235754468682,23.09129734264134"/><text text-anchor="middle" pointer-events="none" font-size="8px" fill="#000000" x="71.50624265652567" y="29.45839380372192" transform="rotate(180 71.50624265652567 26.45839380372192)" font-family="sans-serif">PublicTransport</text></g><g class="relationship" transform="translate(88.16464885509527 46.51876554708347) rotate(533.3687317361737)"><path class="outline" fill="#A5ABB6" stroke="none" d="M 25 0.5 L 56.64768377886368 0.5 L 56.64768377886368 -0.5 L 25 -0.5 Z M 75.98362127886368 0.5 L 107.63130505772736 0.5 L 107.63130505772736 3.5 L 114.63130505772736 0 L 107.63130505772736 -3.5 L 107.63130505772736 -0.5 L 75.98362127886368 -0.5 Z"/><text text-anchor="middle" pointer-events="none" font-size="8px" fill="#000000" x="66.31565252886368" y="3" transform="rotate(180 66.31565252886368 0)" font-family="sans-serif">trek</text></g><g class="relationship" transform="translate(-50.532507768243235 62.643284043002126) rotate(487.5499758916574)"><path class="outline" fill="#A5ABB6" stroke="none" d="M 25 0.5 L 41.73357250331012 0.5 L 41.73357250331012 -0.5 L 25 -0.5 Z M 61.06951000331012 0.5 L 77.80308250662024 0.5 L 77.80308250662024 3.5 L 84.80308250662024 0 L 77.80308250662024 -3.5 L 77.80308250662024 -0.5 L 61.06951000331012 -0.5 Z"/><text text-anchor="middle" pointer-events="none" font-size="8px" fill="#000000" x="51.40154125331012" y="3" transform="rotate(180 51.40154125331012 0)" font-family="sans-serif">trek</text></g><g class="relationship" transform="translate(238.44600208248386 50.615867442490085) rotate(181.5616608988122)"><path class="outline" fill="#A5ABB6" stroke="none" d="M 25 0.5 L 60.662736746978496 0.5 L 60.662736746978496 -0.5 L 25 -0.5 Z M 82.6744554969785 0.5 L 118.33719224395699 0.5 L 118.33719224395699 3.5 L 125.33719224395699 0 L 118.33719224395699 -3.5 L 118.33719224395699 -0.5 L 82.6744554969785 -0.5 Z"/><text text-anchor="middle" pointer-events="none" font-size="8px" fill="#000000" x="71.6685961219785" y="3" transform="rotate(180 71.6685961219785 0)" font-family="sans-serif">road</text></g><g class="relationship" transform="translate(238.44600208248386 50.615867442490085) rotate(181.5616608988122)"><path class="outline" fill="#A5ABB6" stroke="none" d="M 21.40063509461097,-12.933012701892217 L 21.90063509461097,-12.06698729810778 A 103.88188818564079 103.88188818564079 0 0 1 61.9218887861614,-25.298406662841174 L 61.80714606623731,-26.291801905543906 A 104.88188818564079 104.88188818564079 0 0 0 21.40063509461097,-12.933012701892217 Z M 81.20308191172339,-26.725855926532773 L 81.13289340871644,-25.728322180714784 A 103.88188818564079 103.88188818564079 0 0 1 121.70598674845284,-14.300492015109517 L 120.32371284882504,-11.637914529587686 L 128.14904653127508,-11.518949163564963 L 123.54901861462324,-17.850595329138628 L 122.16674471499543,-15.188017843616796 A 104.88188818564079 104.88188818564079 0 0 0 81.20308191172339,-26.725855926532773"/><text text-anchor="middle" pointer-events="none" font-size="8px" fill="#000000" x="71.50624265652567" y="-23.45839380372192" transform="rotate(180 71.50624265652567 -26.45839380372192)" font-family="sans-serif">trek</text></g></g><g class="layer nodes"><g class="node" transform="translate(238.44600208248386,50.615867442490085)"><circle class="outline" cx="0" cy="0" r="25" fill="#F16667" stroke="#eb2728" stroke-width="2px"/><text text-anchor="middle" pointer-events="none" font-family="sans-serif" dy="1.5625" font-size="25" fill="#FFFFFF"/><text text-anchor="middle" pointer-events="none" y="5" font-size="10px" fill="#FFFFFF" font-family="sans-serif"> Darjeeling</text></g><g class="node" transform="translate(-117.45234721419092,149.69758902836304)"><circle class="outline" cx="0" cy="0" r="25" fill="#D9C8AE" stroke="#c0a378" stroke-width="2px"/><text text-anchor="middle" pointer-events="none" font-family="sans-serif" dy="1.5625" font-size="25" fill="#604A0E"/><text text-anchor="middle" pointer-events="none" y="5" font-size="10px" fill="#604A0E" font-family="sans-serif"> Sandak…</text></g><g class="node" transform="translate(88.16464885509527,46.51876554708347)"><circle class="outline" cx="0" cy="0" r="25" fill="#F16667" stroke="#eb2728" stroke-width="2px"/><text text-anchor="middle" pointer-events="none" font-family="sans-serif" dy="1.5625" font-size="25" fill="#FFFFFF"/><text text-anchor="middle" pointer-events="none" y="5" font-size="10px" fill="#FFFFFF" font-family="sans-serif"> Rimbik</text></g><g class="node" transform="translate(-50.532507768243235,62.643284043002126)"><circle class="outline" cx="0" cy="0" r="25" fill="#8DCC93" stroke="#5db665" stroke-width="2px"/><text text-anchor="middle" pointer-events="none" font-family="sans-serif" dy="1.5625" font-size="25" fill="#604A0E"/><text text-anchor="middle" pointer-events="none" y="5" font-size="10px" fill="#604A0E" font-family="sans-serif"> BhikeBh…</text></g></g></svg>