<svg xmlns="http://www.w3.org/2000/svg" width="185.84823608398438" height="243.73472595214844" viewBox="-4.246252059936523 -25.190553665161133 185.84823608398438 243.73472595214844"><title>Neo4j Graph Visualization</title><desc>Created using Neo4j (http://www.neo4j.com/)</desc><g class="layer relationships"><g class="relationship" transform="translate(152.6019879533437 129.8025512235082) rotate(241.89254192045286)"><path class="outline" fill="#A5ABB6" stroke="none" d="M 25 0.5 L 45.1381046951651 0.5 L 45.1381046951651 -0.5 L 25 -0.5 Z M 90.7006046951651 0.5 L 110.8387093903302 0.5 L 110.8387093903302 3.5 L 117.8387093903302 0 L 110.8387093903302 -3.5 L 110.8387093903302 -0.5 L 90.7006046951651 -0.5 Z"/><text text-anchor="middle" pointer-events="none" font-size="8px" fill="#000000" x="67.9193546951651" y="3" transform="rotate(180 67.9193546951651 0)" font-family="sans-serif">ACTED_IN</text></g><g class="relationship" transform="translate(152.6019879533437 129.8025512235082) rotate(507.2209588459994)"><path class="outline" fill="#A5ABB6" stroke="none" d="M 25 0.5 L 28.8919505354715 0.5 L 28.8919505354715 -0.5 L 25 -0.5 Z M 74.4544505354715 0.5 L 78.346401070943 0.5 L 78.346401070943 3.5 L 85.346401070943 0 L 78.346401070943 -3.5 L 78.346401070943 -0.5 L 74.4544505354715 -0.5 Z"/><text text-anchor="middle" pointer-events="none" font-size="8px" fill="#000000" x="51.6732005354715" y="3" transform="rotate(180 51.6732005354715 0)" font-family="sans-serif">ACTED_IN</text></g><g class="relationship" transform="translate(152.6019879533437 129.8025512235082) rotate(260.83300596888193)"><path class="outline" fill="#A5ABB6" stroke="none" d="M 25 0.5 L 26.753913527754264 0.5 L 26.753913527754264 -0.5 L 25 -0.5 Z M 56.753913527754264 0.5 L 58.50782705550853 0.5 L 58.50782705550853 3.5 L 65.50782705550853 0 L 58.50782705550853 -3.5 L 58.50782705550853 -0.5 L 56.753913527754264 -0.5 Z"/><text text-anchor="middle" pointer-events="none" font-size="8px" fill="#000000" x="41.753913527754264" y="3" transform="rotate(180 41.753913527754264 0)" font-family="sans-serif">ACT…</text></g><g class="relationship" transform="translate(24.75374876169782 86.44274633707194) rotate(306.2337029115482)"><path class="outline" fill="#A5ABB6" stroke="none" d="M 25 0.5 L 27.165769562926762 0.5 L 27.165769562926762 -0.5 L 25 -0.5 Z M 68.27905081292676 0.5 L 70.44482037585352 0.5 L 70.44482037585352 3.5 L 77.44482037585352 0 L 70.44482037585352 -3.5 L 70.44482037585352 -0.5 L 68.27905081292676 -0.5 Z"/><text text-anchor="middle" pointer-events="none" font-size="8px" fill="#000000" x="47.72241018792676" y="3" font-family="sans-serif">ACTED…</text></g><g class="relationship" transform="translate(24.75374876169782 86.44274633707194) rotate(431.2128034993753)"><path class="outline" fill="#A5ABB6" stroke="none" d="M 25 0.5 L 28.170587276515626 0.5 L 28.170587276515626 -0.5 L 25 -0.5 Z M 73.73308727651562 0.5 L 76.90367455303125 0.5 L 76.90367455303125 3.5 L 83.90367455303125 0 L 76.90367455303125 -3.5 L 76.90367455303125 -0.5 L 73.73308727651562 -0.5 Z"/><text text-anchor="middle" pointer-events="none" font-size="8px" fill="#000000" x="50.951837276515626" y="3" font-family="sans-serif">ACTED_IN</text></g><g class="relationship" transform="translate(24.75374876169782 86.44274633707194) rotate(337.9289511174594)"><path class="outline" fill="#A5ABB6" stroke="none" d="M 25 0.5 L 34.91813041178539 0.5 L 34.91813041178539 -0.5 L 25 -0.5 Z M 80.4806304117854 0.5 L 90.39876082357078 0.5 L 90.39876082357078 3.5 L 97.39876082357078 0 L 90.39876082357078 -3.5 L 90.39876082357078 -0.5 L 80.4806304117854 -0.5 Z"/><text text-anchor="middle" pointer-events="none" font-size="8px" fill="#000000" x="57.69938041178539" y="3" font-family="sans-serif">ACTED_IN</text></g></g><g class="layer nodes"><g class="node" transform="translate(152.6019879533437,129.8025512235082)"><circle class="outline" cx="0" cy="0" r="25" fill="#F79767" stroke="#f36924" stroke-width="2px"/><text text-anchor="middle" pointer-events="none" font-family="sans-serif" dy="1.5625" font-size="25" fill="#FFFFFF"/><text text-anchor="middle" pointer-events="none" font-family="sans-serif" dy="1.5625" font-size="25" fill="#FFFFFF"/><text text-anchor="middle" pointer-events="none" y="0" font-size="10px" fill="#FFFFFF" font-family="sans-serif"> Hugo</text><text text-anchor="middle" pointer-events="none" y="10" font-size="10px" fill="#FFFFFF" font-family="sans-serif"> Weaving</text></g><g class="node" transform="translate(24.75374876169782,86.44274633707194)"><circle class="outline" cx="0" cy="0" r="25" fill="#F79767" stroke="#f36924" stroke-width="2px"/><text text-anchor="middle" pointer-events="none" font-family="sans-serif" dy="1.5625" font-size="25" fill="#FFFFFF"/><text text-anchor="middle" pointer-events="none" font-family="sans-serif" dy="1.5625" font-size="25" fill="#FFFFFF"/><text text-anchor="middle" pointer-events="none" y="0" font-size="10px" fill="#FFFFFF" font-family="sans-serif"> Keanu</text><text text-anchor="middle" pointer-events="none" y="10" font-size="10px" fill="#FFFFFF" font-family="sans-serif"> Reeves</text></g><g class="node" transform="translate(85.30685788642242,3.809446771036889)"><circle class="outline" cx="0" cy="0" r="25" fill="#57C7E3" stroke="#23b3d7" stroke-width="2px"/><text text-anchor="middle" pointer-events="none" font-family="sans-serif" dy="1.5625" font-size="25" fill="#FFFFFF"/><text text-anchor="middle" pointer-events="none" font-family="sans-serif" dy="1.5625" font-size="25" fill="#FFFFFF"/><text text-anchor="middle" pointer-events="none" font-family="sans-serif" dy="1.5625" font-size="25" fill="#FFFFFF"/><text text-anchor="middle" pointer-events="none" y="-5" font-size="10px" fill="#FFFFFF" font-family="sans-serif"> The</text><text text-anchor="middle" pointer-events="none" y="5" font-size="10px" fill="#FFFFFF" font-family="sans-serif"> Matrix</text><text text-anchor="middle" pointer-events="none" y="15" font-size="10px" fill="#FFFFFF" font-family="sans-serif"> Revol…</text></g><g class="node" transform="translate(59.826628654615654,189.5441693494121)"><circle class="outline" cx="0" cy="0" r="25" fill="#57C7E3" stroke="#23b3d7" stroke-width="2px"/><text text-anchor="middle" pointer-events="none" font-family="sans-serif" dy="1.5625" font-size="25" fill="#FFFFFF"/><text text-anchor="middle" pointer-events="none" font-family="sans-serif" dy="1.5625" font-size="25" fill="#FFFFFF"/><text text-anchor="middle" pointer-events="none" font-family="sans-serif" dy="1.5625" font-size="25" fill="#FFFFFF"/><text text-anchor="middle" pointer-events="none" y="-5" font-size="10px" fill="#FFFFFF" font-family="sans-serif"> The</text><text text-anchor="middle" pointer-events="none" y="5" font-size="10px" fill="#FFFFFF" font-family="sans-serif"> Matrix</text><text text-anchor="middle" pointer-events="none" y="15" font-size="10px" fill="#FFFFFF" font-family="sans-serif"> Reloa…</text></g><g class="node" transform="translate(138.18295896951403,40.4506717722436)"><circle class="outline" cx="0" cy="0" r="25" fill="#57C7E3" stroke="#23b3d7" stroke-width="2px"/><text text-anchor="middle" pointer-events="none" font-family="sans-serif" dy="1.5625" font-size="25" fill="#FFFFFF"/><text text-anchor="middle" pointer-events="none" font-family="sans-serif" dy="1.5625" font-size="25" fill="#FFFFFF"/><text text-anchor="middle" pointer-events="none" y="0" font-size="10px" fill="#FFFFFF" font-family="sans-serif"> The</text><text text-anchor="middle" pointer-events="none" y="10" font-size="10px" fill="#FFFFFF" font-family="sans-serif"> Matrix</text></g></g></svg>