<svg xmlns="http://www.w3.org/2000/svg" width="363.0401916503906" height="364.70184326171875" viewBox="-89.8257064819336 -76.667236328125 363.0401916503906 364.70184326171875"><title>Neo4j Graph Visualization</title><desc>Created using Neo4j (http://www.neo4j.com/)</desc><g class="layer relationships"><g class="relationship" transform="translate(135.86761370274735 259.0346010279726) rotate(330.07124816870873)"><path class="outline" fill="#A5ABB6" stroke="none" d="M 21.40063509461097,12.933012701892217 L 21.90063509461097,12.06698729810778 A 57.57642420225949 57.57642420225949 0 0 0 24.241408495843558,13.34705933566881 L 23.782063563150444,14.23531731216503 A 58.57642420225949 58.57642420225949 0 0 1 21.40063509461097,12.933012701892217 Z M 74.27130359573624,15.823975952876069 L 73.8687106290067,14.908596849367633 A 57.57642420225949 57.57642420225949 0 0 0 76.28532958358132,13.778217547693085 L 74.95163357471196,11.090978266213673 L 82.77783724184482,11.11413340724452 L 78.06359092874044,17.3612032563323 L 76.72989491987109,14.673963974852889 A 58.57642420225949 58.57642420225949 0 0 1 74.27130359573624,15.823975952876069"/><text text-anchor="middle" pointer-events="none" font-size="8px" fill="#000000" x="48.86235954230312" y="23.25203710816288" font-family="sans-serif">PRODUCED</text></g><g class="relationship" transform="translate(135.86761370274735 259.0346010279726) rotate(330.07124816870873)"><path class="outline" fill="#A5ABB6" stroke="none" d="M 25 0.5 L 25.640436460419956 0.5 L 25.640436460419956 -0.5 L 25 -0.5 Z M 72.53106146041995 0.5 L 73.17149792083991 0.5 L 73.17149792083991 3.5 L 80.17149792083991 0 L 73.17149792083991 -3.5 L 73.17149792083991 -0.5 L 72.53106146041995 -0.5 Z"/><text text-anchor="middle" pointer-events="none" font-size="8px" fill="#000000" x="49.085748960419956" y="3" font-family="sans-serif">DIRECTED</text></g><g class="relationship" transform="translate(135.86761370274735 259.0346010279726) rotate(330.07124816870873)"><path class="outline" fill="#A5ABB6" stroke="none" d="M 21.40063509461097,-12.933012701892217 L 21.90063509461097,-12.06698729810778 A 57.57642420225949 57.57642420225949 0 0 1 31.51820978235342,-16.495512616324483 L 31.185249935002652,-17.438453621929902 A 58.57642420225949 58.57642420225949 0 0 0 21.40063509461097,-12.933012701892217 Z M 66.68138613094459,-18.555349884245288 L 66.4083660694949,-17.59334154434069 A 57.57642420225949 57.57642420225949 0 0 1 76.28532958358132,-13.778217547693085 L 74.95163357471196,-11.090978266213673 L 82.77783724184482,-11.11413340724452 L 78.06359092874044,-17.3612032563323 L 76.72989491987109,-14.673963974852889 A 58.57642420225949 58.57642420225949 0 0 0 66.68138613094459,-18.555349884245288"/><text text-anchor="middle" pointer-events="none" font-size="8px" fill="#000000" x="48.86235954230311" y="-17.25203710816288" font-family="sans-serif">WROTE</text></g><g class="relationship" transform="translate(244.2144963274986 16.045181358202232) rotate(201.80926875456367)"><path class="outline" fill="#A5ABB6" stroke="none" d="M 24.018736134675446,6.953439040707552 L 24.277555179777966,5.987513214418485 A 99.5741084354256 99.5741084354256 0 0 0 30.745371184258005,7.491335061513539 L 30.551506936201694,8.472363426712803 A 100.5741084354256 100.5741084354256 0 0 1 24.018736134675446,6.953439040707552 Z M 66.3077742627069,9.057562397304864 L 66.14611691695796,8.070715447385368 A 99.5741084354256 99.5741084354256 0 0 0 72.65967986780258,6.779351168418264 L 71.97846516105491,3.857716947077288 L 79.59036216872279,5.676789222897208 L 73.56796614346612,10.674863463539566 L 72.88675143671846,7.753229242198589 A 100.5741084354256 100.5741084354256 0 0 1 66.3077742627069,9.057562397304864"/><text text-anchor="middle" pointer-events="none" font-size="8px" fill="#000000" x="48.41160398919755" y="12.867018606590065" transform="rotate(180 48.41160398919755 9.867018606590065)" font-family="sans-serif">WROTE</text></g><g class="relationship" transform="translate(244.2144963274986 16.045181358202232) rotate(201.80926875456367)"><path class="outline" fill="#A5ABB6" stroke="none" d="M 24.018736134675446,-6.953439040707552 L 24.277555179777966,-5.987513214418485 A 99.5741084354256 99.5741084354256 0 0 1 25.35203881817657,-6.269006543738499 L 25.104010566537145,-7.237759343160874 A 100.5741084354256 100.5741084354256 0 0 0 24.018736134675446,-6.953439040707552 Z M 71.79275417632479,-8.001882858884542 L 71.576560131231,-7.025532442862712 A 99.5741084354256 99.5741084354256 0 0 1 72.65967986780258,-6.779351168418264 L 71.97846516105491,-3.857716947077288 L 79.59036216872279,-5.676789222897208 L 73.56796614346612,-10.674863463539566 L 72.88675143671846,-7.753229242198589 A 100.5741084354256 100.5741084354256 0 0 0 71.79275417632479,-8.001882858884542"/><text text-anchor="middle" pointer-events="none" font-size="8px" fill="#000000" x="48.41160398919753" y="-6.867018606590065" transform="rotate(180 48.41160398919753 -9.867018606590065)" font-family="sans-serif">DIRECTED</text></g><g class="relationship" transform="translate(46.94903908159866 -47.66723227892521) rotate(373.9859190908845)"><path class="outline" fill="#A5ABB6" stroke="none" d="M 24.018736134675446,6.953439040707552 L 24.277555179777966,5.987513214418485 A 99.39093173362035 99.39093173362035 0 0 0 30.70019706813838,7.481986965678601 L 30.505998021825828,8.462949110927482 A 100.39093173362035 100.39093173362035 0 0 1 24.018736134675446,6.953439040707552 Z M 66.26188304486803,9.04862560304143 L 66.09991560875449,8.061829499665052 A 99.39093173362035 99.39093173362035 0 0 0 72.56805745114981,6.7785050177116295 L 71.88692178309792,3.8568523686604963 L 79.49876957694444,5.676130567099076 L 73.47623834188566,10.67404188311314 L 72.79510267383377,7.752389234062007 A 100.39093173362035 100.39093173362035 0 0 1 66.26188304486803,9.04862560304143"/><text text-anchor="middle" pointer-events="none" font-size="8px" fill="#000000" x="48.36584091492972" y="12.860779419668816" font-family="sans-serif">WROTE</text></g><g class="relationship" transform="translate(46.94903908159866 -47.66723227892521) rotate(373.9859190908845)"><path class="outline" fill="#A5ABB6" stroke="none" d="M 24.018736134675446,-6.953439040707552 L 24.277555179777966,-5.987513214418485 A 99.39093173362035 99.39093173362035 0 0 1 25.307396731873716,-6.257555062921526 L 25.05893921104844,-7.226197855877402 A 100.39093173362035 100.39093173362035 0 0 0 24.018736134675446,-6.953439040707552 Z M 71.74652451331372,-7.990934099085507 L 71.52992423961481,-7.014673723246375 A 99.39093173362035 99.39093173362035 0 0 1 72.56805745114981,-6.7785050177116295 L 71.88692178309792,-3.8568523686604963 L 79.49876957694444,-5.676130567099076 L 73.47623834188566,-10.67404188311314 L 72.79510267383377,-7.752389234062007 A 100.39093173362035 100.39093173362035 0 0 0 71.74652451331372,-7.990934099085507"/><text text-anchor="middle" pointer-events="none" font-size="8px" fill="#000000" x="48.36584091492968" y="-6.860779419668816" font-family="sans-serif">DIRECTED</text></g><g class="relationship" transform="translate(-60.82570719902404 95.4306726984874) rotate(432.0914016635372)"><path class="outline" fill="#A5ABB6" stroke="none" d="M 21.40063509461097,12.933012701892217 L 21.90063509461097,12.06698729810778 A 57.16924031985755 57.16924031985755 0 0 0 31.327010055525385,16.420538285027327 L 30.99189548881389,17.36271567128629 A 58.16924031985755 58.16924031985755 0 0 1 21.40063509461097,12.933012701892217 Z M 66.48204323951042,18.483382491142457 L 66.20703899505048,17.521939479035645 A 57.16924031985755 57.16924031985755 0 0 0 75.8893035797632,13.771779000992048 L 74.55620654105375,11.08424252954015 L 82.38240485293586,11.10914198924534 L 77.66676629804245,17.355160962927915 L 76.333669259333,14.667624491476015 A 58.16924031985755 58.16924031985755 0 0 1 66.48204323951042,18.483382491142457"/><text text-anchor="middle" pointer-events="none" font-size="8px" fill="#000000" x="48.66514989778655" y="23.197483755182553" font-family="sans-serif">WROTE</text></g><g class="relationship" transform="translate(-60.82570719902404 95.4306726984874) rotate(432.0914016635372)"><path class="outline" fill="#A5ABB6" stroke="none" d="M 25 0.5 L 27.44395855751752 0.5 L 27.44395855751752 -0.5 L 25 -0.5 Z M 70.33458355751752 0.5 L 72.77854211503504 0.5 L 72.77854211503504 3.5 L 79.77854211503504 0 L 72.77854211503504 -3.5 L 72.77854211503504 -0.5 L 70.33458355751752 -0.5 Z"/><text text-anchor="middle" pointer-events="none" font-size="8px" fill="#000000" x="48.88927105751752" y="3" font-family="sans-serif">PRODU…</text></g><g class="relationship" transform="translate(-60.82570719902404 95.4306726984874) rotate(432.0914016635372)"><path class="outline" fill="#A5ABB6" stroke="none" d="M 21.40063509461097,-12.933012701892217 L 21.90063509461097,-12.06698729810778 A 57.16924031985755 57.16924031985755 0 0 1 26.232197558445755,-14.326763585541308 L 25.80796491934823,-15.232316824133243 A 58.16924031985755 58.16924031985755 0 0 0 21.40063509461097,-12.933012701892217 Z M 71.79005486421609,-16.684286054321753 L 71.42379944309444,-15.753771698441632 A 57.16924031985755 57.16924031985755 0 0 1 75.8893035797632,-13.771779000992048 L 74.55620654105375,-11.08424252954015 L 82.38240485293586,-11.10914198924534 L 77.66676629804245,-17.355160962927915 L 76.333669259333,-14.667624491476015 A 58.16924031985755 58.16924031985755 0 0 0 71.79005486421609,-16.684286054321753"/><text text-anchor="middle" pointer-events="none" font-size="8px" fill="#000000" x="48.66514989778654" y="-17.197483755182553" font-family="sans-serif">DIRECTED</text></g></g><g class="layer nodes"><g class="node" transform="translate(135.86761370274735,259.0346010279726)"><circle class="outline" cx="0" cy="0" r="25" fill="#F79767" stroke="#f36924" stroke-width="2px"/><text text-anchor="middle" pointer-events="none" font-family="sans-serif" dy="1.5625" font-size="25" fill="#FFFFFF"/><text text-anchor="middle" pointer-events="none" font-family="sans-serif" dy="1.5625" font-size="25" fill="#FFFFFF"/><text text-anchor="middle" pointer-events="none" y="0" font-size="10px" fill="#FFFFFF" font-family="sans-serif"> Cameron</text><text text-anchor="middle" pointer-events="none" y="10" font-size="10px" fill="#FFFFFF" font-family="sans-serif"> Crowe</text></g><g class="node" transform="translate(227.0141233930852,206.5621535323356)"><circle class="outline" cx="0" cy="0" r="25" fill="#57C7E3" stroke="#23b3d7" stroke-width="2px"/><text text-anchor="middle" pointer-events="none" font-family="sans-serif" dy="1.5625" font-size="25" fill="#FFFFFF"/><text text-anchor="middle" pointer-events="none" font-family="sans-serif" dy="1.5625" font-size="25" fill="#FFFFFF"/><text text-anchor="middle" pointer-events="none" y="0" font-size="10px" fill="#FFFFFF" font-family="sans-serif"> Jerry</text><text text-anchor="middle" pointer-events="none" y="10" font-size="10px" fill="#FFFFFF" font-family="sans-serif"> Maguire</text></g><g class="node" transform="translate(244.2144963274986,16.045181358202232)"><circle class="outline" cx="0" cy="0" r="25" fill="#F79767" stroke="#f36924" stroke-width="2px"/><text text-anchor="middle" pointer-events="none" font-family="sans-serif" dy="1.5625" font-size="25" fill="#FFFFFF"/><text text-anchor="middle" pointer-events="none" font-family="sans-serif" dy="1.5625" font-size="25" fill="#FFFFFF"/><text text-anchor="middle" pointer-events="none" y="0" font-size="10px" fill="#FFFFFF" font-family="sans-serif"> Lana</text><text text-anchor="middle" pointer-events="none" y="10" font-size="10px" fill="#FFFFFF" font-family="sans-serif"> Wacho…</text></g><g class="node" transform="translate(147.71641881208586,-22.569405006465196)"><circle class="outline" cx="0" cy="0" r="25" fill="#57C7E3" stroke="#23b3d7" stroke-width="2px"/><text text-anchor="middle" pointer-events="none" font-family="sans-serif" dy="1.5625" font-size="25" fill="#FFFFFF"/><text text-anchor="middle" pointer-events="none" font-family="sans-serif" dy="1.5625" font-size="25" fill="#FFFFFF"/><text text-anchor="middle" pointer-events="none" y="0" font-size="10px" fill="#FFFFFF" font-family="sans-serif"> Speed</text><text text-anchor="middle" pointer-events="none" y="10" font-size="10px" fill="#FFFFFF" font-family="sans-serif"> Racer</text></g><g class="node" transform="translate(46.94903908159866,-47.66723227892521)"><circle class="outline" cx="0" cy="0" r="25" fill="#F79767" stroke="#f36924" stroke-width="2px"/><text text-anchor="middle" pointer-events="none" font-family="sans-serif" dy="1.5625" font-size="25" fill="#FFFFFF"/><text text-anchor="middle" pointer-events="none" font-family="sans-serif" dy="1.5625" font-size="25" fill="#FFFFFF"/><text text-anchor="middle" pointer-events="none" y="0" font-size="10px" fill="#FFFFFF" font-family="sans-serif"> Lilly</text><text text-anchor="middle" pointer-events="none" y="10" font-size="10px" fill="#FFFFFF" font-family="sans-serif"> Wacho…</text></g><g class="node" transform="translate(-60.82570719902404,95.4306726984874)"><circle class="outline" cx="0" cy="0" r="25" fill="#F79767" stroke="#f36924" stroke-width="2px"/><text text-anchor="middle" pointer-events="none" font-family="sans-serif" dy="1.5625" font-size="25" fill="#FFFFFF"/><text text-anchor="middle" pointer-events="none" font-family="sans-serif" dy="1.5625" font-size="25" fill="#FFFFFF"/><text text-anchor="middle" pointer-events="none" y="0" font-size="10px" fill="#FFFFFF" font-family="sans-serif"> Nancy</text><text text-anchor="middle" pointer-events="none" y="10" font-size="10px" fill="#FFFFFF" font-family="sans-serif"> Meyers</text></g><g class="node" transform="translate(-28.606366330268962,195.1325130111674)"><circle class="outline" cx="0" cy="0" r="25" fill="#57C7E3" stroke="#23b3d7" stroke-width="2px"/><text text-anchor="middle" pointer-events="none" font-family="sans-serif" dy="1.5625" font-size="25" fill="#FFFFFF"/><text text-anchor="middle" pointer-events="none" y="5" font-size="10px" fill="#FFFFFF" font-family="sans-serif"> Somethi…</text></g></g></svg>