<svg xmlns="http://www.w3.org/2000/svg" width="357.44415283203125" height="378.2047119140625" viewBox="-41.54063415527344 -128.32174682617188 357.44415283203125 378.2047119140625"><title>Neo4j Graph Visualization</title><desc>Created using Neo4j (http://www.neo4j.com/)</desc><g class="layer relationships"><g class="relationship" transform="translate(286.903505837229 213.9975273341097) rotate(200.50526901952344)"><path class="outline" fill="#A5ABB6" stroke="none" d="M 25 0.5 L 27.48054027626204 0.5 L 27.48054027626204 -0.5 L 25 -0.5 Z M 74.37116527626205 0.5 L 76.85170555252408 0.5 L 76.85170555252408 3.5 L 83.85170555252408 0 L 76.85170555252408 -3.5 L 76.85170555252408 -0.5 L 74.37116527626205 -0.5 Z"/><text text-anchor="middle" pointer-events="none" font-size="8px" fill="#000000" x="50.92585277626204" y="3" transform="rotate(180 50.92585277626204 0)" font-family="sans-serif">DIRECTED</text></g><g class="relationship" transform="translate(71.20099008129522 124.96181455172011) rotate(241.60425416965455)"><path class="outline" fill="#A5ABB6" stroke="none" d="M 25 0.5 L 25.16995473482794 0.5 L 25.16995473482794 -0.5 L 25 -0.5 Z M 72.06057973482794 0.5 L 72.23053446965588 0.5 L 72.23053446965588 3.5 L 79.23053446965588 0 L 72.23053446965588 -3.5 L 72.23053446965588 -0.5 L 72.06057973482794 -0.5 Z"/><text text-anchor="middle" pointer-events="none" font-size="8px" fill="#000000" x="48.61526723482794" y="3" transform="rotate(180 48.61526723482794 0)" font-family="sans-serif">DIRECTED</text></g><g class="relationship" transform="translate(71.20099008129522 124.96181455172011) rotate(384.110022344649)"><path class="outline" fill="#A5ABB6" stroke="none" d="M 25 0.5 L 35.36422966615695 0.5 L 35.36422966615695 -0.5 L 25 -0.5 Z M 82.25485466615694 0.5 L 92.6190843323139 0.5 L 92.6190843323139 3.5 L 99.6190843323139 0 L 92.6190843323139 -3.5 L 92.6190843323139 -0.5 L 82.25485466615694 -0.5 Z"/><text text-anchor="middle" pointer-events="none" font-size="8px" fill="#000000" x="58.80954216615695" y="3" font-family="sans-serif">DIRECTED</text></g><g class="relationship" transform="translate(71.20099008129522 124.96181455172011) rotate(293.10830811409505)"><path class="outline" fill="#A5ABB6" stroke="none" d="M 24.018736134675446,6.953439040707552 L 24.277555179777966,5.987513214418485 A 152.11082241101226 152.11082241101226 0 0 0 35.98594841350878,8.634416021961414 L 35.80410215080365,9.61774299542455 A 153.11082241101226 153.11082241101226 0 0 1 24.018736134675446,6.953439040707552 Z M 87.50164445068795,10.300830840753122 L 87.34584284836426,9.31304247236983 A 152.11082241101226 152.11082241101226 0 0 0 99.12008420118532,6.976419448908691 L 98.42046235995869,4.05913830385622 L 106.04367717984553,5.830182010221954 L 100.05291332282084,10.866127642311984 L 99.35329148159421,7.948846497259514 A 153.11082241101226 153.11082241101226 0 0 1 87.50164445068795,10.300830840753122"/><text text-anchor="middle" pointer-events="none" font-size="8px" fill="#000000" x="61.63043792958315" y="14.657243568359263" font-family="sans-serif">PRODUCED</text></g><g class="relationship" transform="translate(71.20099008129522 124.96181455172011) rotate(442.01250961894726)"><path class="outline" fill="#A5ABB6" stroke="none" d="M 25 0.5 L 25.48511692118629 0.5 L 25.48511692118629 -0.5 L 25 -0.5 Z M 64.37574192118629 0.5 L 64.86085884237258 0.5 L 64.86085884237258 3.5 L 71.86085884237258 0 L 64.86085884237258 -3.5 L 64.86085884237258 -0.5 L 64.37574192118629 -0.5 Z"/><text text-anchor="middle" pointer-events="none" font-size="8px" fill="#000000" x="44.93042942118629" y="3" font-family="sans-serif">DIREC…</text></g><g class="relationship" transform="translate(71.20099008129522 124.96181455172011) rotate(293.10830811409505)"><path class="outline" fill="#A5ABB6" stroke="none" d="M 24.018736134675446,-6.953439040707552 L 24.277555179777966,-5.987513214418485 A 152.11082241101226 152.11082241101226 0 0 1 43.86505714452197,-9.878797199681259 L 43.73500935746851,-10.870304926873786 A 153.11082241101226 153.11082241101226 0 0 0 24.018736134675446,-6.953439040707552 Z M 79.54041121434183,-11.343407393982574 L 79.43660615354919,-10.34880973193333 A 152.11082241101226 152.11082241101226 0 0 1 99.12008420118532,-6.976419448908691 L 98.42046235995869,-4.05913830385622 L 106.04367717984553,-5.830182010221954 L 100.05291332282084,-10.866127642311984 L 99.35329148159421,-7.948846497259514 A 153.11082241101226 153.11082241101226 0 0 0 79.54041121434183,-11.343407393982574"/><text text-anchor="middle" pointer-events="none" font-size="8px" fill="#000000" x="61.63043792958311" y="-8.657243568359263" font-family="sans-serif">WROTE</text></g><g class="relationship" transform="translate(71.20099008129522 124.96181455172011) rotate(534.2023453424392)"><path class="outline" fill="#A5ABB6" stroke="none" d="M 25 0.5 L 27.58609013595337 0.5 L 27.58609013595337 -0.5 L 25 -0.5 Z M 49.58609013595337 0.5 L 52.17218027190674 0.5 L 52.17218027190674 3.5 L 59.17218027190674 0 L 52.17218027190674 -3.5 L 52.17218027190674 -0.5 L 49.58609013595337 -0.5 Z"/><text text-anchor="middle" pointer-events="none" font-size="8px" fill="#000000" x="38.58609013595337" y="3" transform="rotate(180 38.58609013595337 0)" font-family="sans-serif">DI…</text></g><g class="relationship" transform="translate(124.96201754172417 98.70551477319472) rotate(268.40903911192044)"><path class="outline" fill="#A5ABB6" stroke="none" d="M 24.018736134675446,6.953439040707552 L 24.277555179777966,5.987513214418485 A 78.93665369949694 78.93665369949694 0 0 0 25.053247694751764,6.191141763474462 L 24.804255421859867,7.159647234827162 A 79.93665369949694 79.93665369949694 0 0 1 24.018736134675446,6.953439040707552 Z M 61.806373533644674,7.827112705850439 L 61.59247279814413,6.8502573043951855 A 78.93665369949694 78.93665369949694 0 0 0 62.375004619805644,6.6747369014099425 L 61.703562167740515,3.7508413777010743 L 69.30933458380386,5.595353767209442 L 63.27026122255916,10.5732642663551 L 62.59881877049403,7.6493687426462325 A 79.93665369949694 79.93665369949694 0 0 1 61.806373533644674,7.827112705850439"/><text text-anchor="middle" pointer-events="none" font-size="8px" fill="#000000" x="43.27517357628998" y="12.164293664486408" transform="rotate(180 43.27517357628998 9.164293664486408)" font-family="sans-serif">PROD…</text></g><g class="relationship" transform="translate(124.96201754172417 98.70551477319472) rotate(412.13808100456805)"><path class="outline" fill="#A5ABB6" stroke="none" d="M 25 0.5 L 25.922787047741956 0.5 L 25.922787047741956 -0.5 L 25 -0.5 Z M 64.81341204774196 0.5 L 65.73619909548391 0.5 L 65.73619909548391 3.5 L 72.73619909548391 0 L 65.73619909548391 -3.5 L 65.73619909548391 -0.5 L 64.81341204774196 -0.5 Z"/><text text-anchor="middle" pointer-events="none" font-size="8px" fill="#000000" x="45.368099547741956" y="3" font-family="sans-serif">DIREC…</text></g><g class="relationship" transform="translate(124.96201754172417 98.70551477319472) rotate(212.34430019844876)"><path class="outline" fill="#A5ABB6" stroke="none" d="M 25 0.5 L 34.20694973533539 0.5 L 34.20694973533539 -0.5 L 25 -0.5 Z M 81.0975747353354 0.5 L 90.30452447067078 0.5 L 90.30452447067078 3.5 L 97.30452447067078 0 L 90.30452447067078 -3.5 L 90.30452447067078 -0.5 L 81.0975747353354 -0.5 Z"/><text text-anchor="middle" pointer-events="none" font-size="8px" fill="#000000" x="57.65226223533539" y="3" transform="rotate(180 57.65226223533539 0)" font-family="sans-serif">DIRECTED</text></g><g class="relationship" transform="translate(124.96201754172417 98.70551477319472) rotate(468.2556932613577)"><path class="outline" fill="#A5ABB6" stroke="none" d="M 25 0.5 L 37.38109203488678 0.5 L 37.38109203488678 -0.5 L 25 -0.5 Z M 84.27171703488678 0.5 L 96.65280906977355 0.5 L 96.65280906977355 3.5 L 103.65280906977355 0 L 96.65280906977355 -3.5 L 96.65280906977355 -0.5 L 84.27171703488678 -0.5 Z"/><text text-anchor="middle" pointer-events="none" font-size="8px" fill="#000000" x="60.82640453488678" y="3" transform="rotate(180 60.82640453488678 0)" font-family="sans-serif">DIRECTED</text></g><g class="relationship" transform="translate(124.96201754172417 98.70551477319472) rotate(525.813519189534)"><path class="outline" fill="#A5ABB6" stroke="none" d="M 25 0.5 L 43.96866351805207 0.5 L 43.96866351805207 -0.5 L 25 -0.5 Z M 90.85928851805207 0.5 L 109.82795203610414 0.5 L 109.82795203610414 3.5 L 116.82795203610414 0 L 109.82795203610414 -3.5 L 109.82795203610414 -0.5 L 90.85928851805207 -0.5 Z"/><text text-anchor="middle" pointer-events="none" font-size="8px" fill="#000000" x="67.41397601805207" y="3" transform="rotate(180 67.41397601805207 0)" font-family="sans-serif">DIRECTED</text></g><g class="relationship" transform="translate(124.96201754172417 98.70551477319472) rotate(268.40903911192044)"><path class="outline" fill="#A5ABB6" stroke="none" d="M 24.018736134675446,-6.953439040707552 L 24.277555179777966,-5.987513214418485 A 78.93665369949694 78.93665369949694 0 0 1 25.69867808930309,-6.354176583513663 L 25.45786237779684,-7.324747442900929 A 79.93665369949694 79.93665369949694 0 0 0 24.018736134675446,-6.953439040707552 Z M 61.14723738655051,-7.9685328994193725 L 60.9415823820956,-6.989908344678042 A 78.93665369949694 78.93665369949694 0 0 1 62.375004619805644,-6.6747369014099425 L 61.703562167740515,-3.7508413777010743 L 69.30933458380386,-5.595353767209442 L 63.27026122255916,-10.5732642663551 L 62.59881877049403,-7.6493687426462325 A 79.93665369949694 79.93665369949694 0 0 0 61.14723738655051,-7.9685328994193725"/><text text-anchor="middle" pointer-events="none" font-size="8px" fill="#000000" x="43.275173576289966" y="-6.164293664486408" transform="rotate(180 43.275173576289966 -9.164293664486408)" font-family="sans-serif">WROTE</text></g><g class="relationship" transform="translate(155.44311392797854 -99.32175052931242) rotate(467.5840329137275)"><path class="outline" fill="#A5ABB6" stroke="none" d="M 25 0.5 L 27.807123718856097 0.5 L 27.807123718856097 -0.5 L 25 -0.5 Z M 74.6977487188561 0.5 L 77.5048724377122 0.5 L 77.5048724377122 3.5 L 84.5048724377122 0 L 77.5048724377122 -3.5 L 77.5048724377122 -0.5 L 74.6977487188561 -0.5 Z"/><text text-anchor="middle" pointer-events="none" font-size="8px" fill="#000000" x="51.2524362188561" y="3" transform="rotate(180 51.2524362188561 0)" font-family="sans-serif">DIRECTED</text></g></g><g class="layer nodes"><g class="node" transform="translate(286.903505837229,213.9975273341097)"><circle class="outline" cx="0" cy="0" r="25" fill="#F79767" stroke="#f36924" stroke-width="2px"/><text text-anchor="middle" pointer-events="none" font-family="sans-serif" dy="1.5625" font-size="25" fill="#FFFFFF"/><text text-anchor="middle" pointer-events="none" font-family="sans-serif" dy="1.5625" font-size="25" fill="#FFFFFF"/><text text-anchor="middle" pointer-events="none" y="0" font-size="10px" fill="#FFFFFF" font-family="sans-serif"> Tom</text><text text-anchor="middle" pointer-events="none" y="10" font-size="10px" fill="#FFFFFF" font-family="sans-serif"> Tykwer</text></g><g class="node" transform="translate(184.94864656822347,175.86748047955308)"><circle class="outline" cx="0" cy="0" r="25" fill="#57C7E3" stroke="#23b3d7" stroke-width="2px"/><text text-anchor="middle" pointer-events="none" font-family="sans-serif" dy="1.5625" font-size="25" fill="#FFFFFF"/><text text-anchor="middle" pointer-events="none" font-family="sans-serif" dy="1.5625" font-size="25" fill="#FFFFFF"/><text text-anchor="middle" pointer-events="none" y="0" font-size="10px" fill="#FFFFFF" font-family="sans-serif"> Cloud</text><text text-anchor="middle" pointer-events="none" y="10" font-size="10px" fill="#FFFFFF" font-family="sans-serif"> Atlas</text></g><g class="node" transform="translate(71.20099008129522,124.96181455172011)"><circle class="outline" cx="0" cy="0" r="25" fill="#F79767" stroke="#f36924" stroke-width="2px"/><text text-anchor="middle" pointer-events="none" font-family="sans-serif" dy="1.5625" font-size="25" fill="#FFFFFF"/><text text-anchor="middle" pointer-events="none" font-family="sans-serif" dy="1.5625" font-size="25" fill="#FFFFFF"/><text text-anchor="middle" pointer-events="none" y="0" font-size="10px" fill="#FFFFFF" font-family="sans-serif"> Lana</text><text text-anchor="middle" pointer-events="none" y="10" font-size="10px" fill="#FFFFFF" font-family="sans-serif"> Wacho…</text></g><g class="node" transform="translate(124.96201754172417,98.70551477319472)"><circle class="outline" cx="0" cy="0" r="25" fill="#F79767" stroke="#f36924" stroke-width="2px"/><text text-anchor="middle" pointer-events="none" font-family="sans-serif" dy="1.5625" font-size="25" fill="#FFFFFF"/><text text-anchor="middle" pointer-events="none" font-family="sans-serif" dy="1.5625" font-size="25" fill="#FFFFFF"/><text text-anchor="middle" pointer-events="none" y="0" font-size="10px" fill="#FFFFFF" font-family="sans-serif"> Lilly</text><text text-anchor="middle" pointer-events="none" y="10" font-size="10px" fill="#FFFFFF" font-family="sans-serif"> Wacho…</text></g><g class="node" transform="translate(155.44311392797854,-99.32175052931242)"><circle class="outline" cx="0" cy="0" r="25" fill="#F79767" stroke="#f36924" stroke-width="2px"/><text text-anchor="middle" pointer-events="none" font-family="sans-serif" dy="1.5625" font-size="25" fill="#FFFFFF"/><text text-anchor="middle" pointer-events="none" font-family="sans-serif" dy="1.5625" font-size="25" fill="#FFFFFF"/><text text-anchor="middle" pointer-events="none" y="0" font-size="10px" fill="#FFFFFF" font-family="sans-serif"> James</text><text text-anchor="middle" pointer-events="none" y="10" font-size="10px" fill="#FFFFFF" font-family="sans-serif"> Marshall</text></g><g class="node" transform="translate(122.36122705865905,5.066495211121237)"><circle class="outline" cx="0" cy="0" r="25" fill="#57C7E3" stroke="#23b3d7" stroke-width="2px"/><text text-anchor="middle" pointer-events="none" font-family="sans-serif" dy="1.5625" font-size="25" fill="#FFFFFF"/><text text-anchor="middle" pointer-events="none" font-family="sans-serif" dy="1.5625" font-size="25" fill="#FFFFFF"/><text text-anchor="middle" pointer-events="none" y="0" font-size="10px" fill="#FFFFFF" font-family="sans-serif"> V for</text><text text-anchor="middle" pointer-events="none" y="10" font-size="10px" fill="#FFFFFF" font-family="sans-serif"> Vendetta</text></g><g class="node" transform="translate(21.633232336056103,33.271893033925075)"><circle class="outline" cx="0" cy="0" r="25" fill="#57C7E3" stroke="#23b3d7" stroke-width="2px"/><text text-anchor="middle" pointer-events="none" font-family="sans-serif" dy="1.5625" font-size="25" fill="#FFFFFF"/><text text-anchor="middle" pointer-events="none" font-family="sans-serif" dy="1.5625" font-size="25" fill="#FFFFFF"/><text text-anchor="middle" pointer-events="none" font-family="sans-serif" dy="1.5625" font-size="25" fill="#FFFFFF"/><text text-anchor="middle" pointer-events="none" y="-5" font-size="10px" fill="#FFFFFF" font-family="sans-serif"> The</text><text text-anchor="middle" pointer-events="none" y="5" font-size="10px" fill="#FFFFFF" font-family="sans-serif"> Matrix</text><text text-anchor="middle" pointer-events="none" y="15" font-size="10px" fill="#FFFFFF" font-family="sans-serif"> Revol…</text></g><g class="node" transform="translate(-12.540636410559502,133.4645155475838)"><circle class="outline" cx="0" cy="0" r="25" fill="#57C7E3" stroke="#23b3d7" stroke-width="2px"/><text text-anchor="middle" pointer-events="none" font-family="sans-serif" dy="1.5625" font-size="25" fill="#FFFFFF"/><text text-anchor="middle" pointer-events="none" font-family="sans-serif" dy="1.5625" font-size="25" fill="#FFFFFF"/><text text-anchor="middle" pointer-events="none" font-family="sans-serif" dy="1.5625" font-size="25" fill="#FFFFFF"/><text text-anchor="middle" pointer-events="none" y="-5" font-size="10px" fill="#FFFFFF" font-family="sans-serif"> The</text><text text-anchor="middle" pointer-events="none" y="5" font-size="10px" fill="#FFFFFF" font-family="sans-serif"> Matrix</text><text text-anchor="middle" pointer-events="none" y="15" font-size="10px" fill="#FFFFFF" font-family="sans-serif"> Reloa…</text></g><g class="node" transform="translate(84.66047363549417,220.88297112385635)"><circle class="outline" cx="0" cy="0" r="25" fill="#57C7E3" stroke="#23b3d7" stroke-width="2px"/><text text-anchor="middle" pointer-events="none" font-family="sans-serif" dy="1.5625" font-size="25" fill="#FFFFFF"/><text text-anchor="middle" pointer-events="none" font-family="sans-serif" dy="1.5625" font-size="25" fill="#FFFFFF"/><text text-anchor="middle" pointer-events="none" y="0" font-size="10px" fill="#FFFFFF" font-family="sans-serif"> The</text><text text-anchor="middle" pointer-events="none" y="10" font-size="10px" fill="#FFFFFF" font-family="sans-serif"> Matrix</text></g></g></svg>